<?xml version="1.0" encoding="UTF-8" standalone="no"?><!DOCTYPE svg PUBLIC "-//W3C//DTD SVG 1.1//EN" "http://www.w3.org/Graphics/SVG/1.1/DTD/svg11.dtd"><svg width="100%" height="100%" viewBox="0 0 334 114" version="1.1" xmlns="http://www.w3.org/2000/svg" xmlns:xlink="http://www.w3.org/1999/xlink" xml:space="preserve" style="fill-rule:evenodd;clip-rule:evenodd;stroke-linejoin:round;stroke-miterlimit:1.41421;"><g id="Layer1"><g transform="matrix(0.75,0,0,0.75,-31.6469,-22.165)"><path d="M106.497,163l-20.72,0l0,-47.993l-10.867,0l0,47.993l-20.72,0l0,-116.093l20.72,0l0,49.833l10.867,0l0,-49.833l20.72,0l0,116.093Zm-49.307,-113.093l0,110.093l14.72,0l0,-47.993l16.867,0l0,47.993l14.72,0l0,-110.093l-14.72,0l0,49.833l-16.867,0l0,-49.833l-14.72,0Z" style="fill:#fc3;"/><path d="M145.503,46.908l0.298,0.004l0.297,0.006l0.294,0.009l0.293,0.011l0.291,0.014l0.289,0.017l0.287,0.019l0.286,0.022l0.284,0.024l0.282,0.027l0.281,0.03l0.279,0.032l0.277,0.035l0.275,0.037l0.274,0.041l0.272,0.043l0.27,0.046l0.268,0.048l0.267,0.051l0.264,0.054l0.263,0.057l0.262,0.06l0.259,0.062l0.258,0.065l0.256,0.068l0.254,0.071l0.252,0.074l0.251,0.077l0.248,0.08l0.247,0.082l0.245,0.086l0.243,0.088l0.241,0.091l0.239,0.095l0.237,0.097l0.235,0.1l0.233,0.104l0.226,0.104l0.12,0.056l0.114,0.055l0.114,0.056l0.113,0.057l0.113,0.057l0.112,0.058l0.112,0.059l0.111,0.06l0.11,0.06l0.11,0.061l0.11,0.062l0.109,0.062l0.108,0.064l0.108,0.064l0.107,0.065l0.107,0.066l0.106,0.066l0.105,0.067l0.105,0.068l0.105,0.069l0.103,0.069l0.104,0.07l0.102,0.071l0.102,0.072l0.102,0.072l0.1,0.073l0.1,0.074l0.1,0.075l0.099,0.075l0.098,0.076l0.098,0.077l0.097,0.078l0.097,0.078l0.095,0.079l0.096,0.08l0.094,0.081l0.094,0.081l0.093,0.082l0.093,0.082l0.092,0.084l0.091,0.084l0.091,0.085l0.089,0.085l0.09,0.087l0.088,0.087l0.088,0.087l0.087,0.089l0.087,0.089l0.086,0.089l0.085,0.091l0.085,0.091l0.083,0.092l0.084,0.092l0.082,0.093l0.082,0.094l0.081,0.094l0.08,0.096l0.08,0.095l0.079,0.097l0.078,0.097l0.077,0.098l0.077,0.098l0.076,0.099l0.076,0.1l0.074,0.1l0.074,0.101l0.074,0.101l0.072,0.102l0.072,0.103l0.071,0.103l0.07,0.104l0.07,0.105l0.069,0.105l0.068,0.106l0.067,0.106l0.067,0.107l0.066,0.108l0.066,0.108l0.064,0.108l0.064,0.11l0.063,0.11l0.065,0.115l0.121,0.218l0.119,0.224l0.118,0.227l0.114,0.229l0.111,0.232l0.109,0.233l0.105,0.236l0.103,0.238l0.1,0.239l0.097,0.242l0.095,0.244l0.092,0.246l0.089,0.248l0.086,0.25l0.083,0.252l0.081,0.254l0.078,0.256l0.076,0.258l0.072,0.259l0.07,0.262l0.068,0.264l0.065,0.265l0.062,0.268l0.06,0.269l0.057,0.272l0.054,0.273l0.052,0.275l0.05,0.277l0.046,0.28l0.045,0.281l0.042,0.282l0.039,0.285l0.037,0.287l0.035,0.288l0.032,0.291l0.029,0.292l0.027,0.295l0.025,0.296l0.022,0.298l0.02,0.3l0.018,0.302l0.015,0.304l0.013,0.306l0.01,0.308l0.009,0.31l0.005,0.311l0.004,0.314l0.001,0.31l0,94.239l-20.72,0l0,-40.327l-10.867,0l0,40.327l-20.72,0l0,-94.239l0.002,-0.31l0.003,-0.314l0.006,-0.311l0.008,-0.31l0.01,-0.308l0.013,-0.306l0.015,-0.304l0.018,-0.302l0.02,-0.3l0.022,-0.298l0.025,-0.296l0.027,-0.295l0.03,-0.292l0.032,-0.291l0.034,-0.288l0.037,-0.287l0.04,-0.285l0.042,-0.283l0.044,-0.28l0.047,-0.279l0.049,-0.278l0.052,-0.275l0.055,-0.273l0.057,-0.272l0.059,-0.269l0.063,-0.268l0.064,-0.265l0.068,-0.264l0.07,-0.262l0.073,-0.26l0.075,-0.257l0.078,-0.256l0.081,-0.254l0.084,-0.252l0.086,-0.25l0.089,-0.248l0.092,-0.246l0.094,-0.244l0.097,-0.242l0.1,-0.239l0.103,-0.238l0.106,-0.236l0.108,-0.233l0.112,-0.232l0.114,-0.229l0.117,-0.227l0.12,-0.224l0.12,-0.218l0.065,-0.115l0.063,-0.11l0.064,-0.109l0.065,-0.109l0.065,-0.108l0.066,-0.108l0.067,-0.107l0.067,-0.106l0.069,-0.106l0.069,-0.105l0.069,-0.105l0.071,-0.104l0.071,-0.103l0.071,-0.103l0.073,-0.102l0.073,-0.101l0.074,-0.101l0.075,-0.1l0.075,-0.1l0.076,-0.099l0.077,-0.098l0.078,-0.098l0.078,-0.097l0.079,-0.097l0.079,-0.095l0.081,-0.096l0.081,-0.094l0.081,-0.094l0.083,-0.093l0.083,-0.092l0.084,-0.092l0.084,-0.091l0.086,-0.091l0.085,-0.089l0.087,-0.089l0.087,-0.089l0.088,-0.087l0.089,-0.087l0.089,-0.087l0.09,-0.085l0.091,-0.085l0.091,-0.084l0.092,-0.083l0.092,-0.083l0.093,-0.082l0.094,-0.081l0.095,-0.081l0.095,-0.08l0.096,-0.079l0.096,-0.078l0.097,-0.078l0.098,-0.077l0.098,-0.076l0.099,-0.075l0.1,-0.075l0.1,-0.074l0.101,-0.073l0.101,-0.072l0.102,-0.072l0.103,-0.071l0.103,-0.07l0.104,-0.069l0.104,-0.069l0.105,-0.068l0.106,-0.067l0.106,-0.067l0.106,-0.065l0.108,-0.065l0.107,-0.064l0.109,-0.064l0.109,-0.062l0.109,-0.062l0.11,-0.061l0.111,-0.06l0.111,-0.06l0.111,-0.059l0.113,-0.058l0.112,-0.057l0.113,-0.057l0.114,-0.056l0.114,-0.055l0.12,-0.056l0.226,-0.104l0.233,-0.104l0.235,-0.1l0.238,-0.097l0.239,-0.095l0.241,-0.091l0.243,-0.088l0.244,-0.086l0.247,-0.082l0.249,-0.08l0.25,-0.077l0.252,-0.074l0.255,-0.071l0.255,-0.068l0.258,-0.065l0.26,-0.062l0.261,-0.06l0.263,-0.057l0.265,-0.054l0.266,-0.051l0.269,-0.048l0.27,-0.046l0.272,-0.043l0.273,-0.041l0.276,-0.037l0.277,-0.035l0.278,-0.032l0.281,-0.03l0.282,-0.027l0.284,-0.024l0.286,-0.022l0.287,-0.019l0.29,-0.017l0.291,-0.014l0.292,-0.011l0.295,-0.009l0.296,-0.006l0.298,-0.004l0.293,-0.001l11.053,0l0.293,0.001Zm-11.339,2.999l-0.275,0.001l-0.272,0.003l-0.27,0.006l-0.268,0.008l-0.266,0.01l-0.264,0.013l-0.261,0.015l-0.26,0.017l-0.257,0.02l-0.255,0.022l-0.253,0.024l-0.251,0.026l-0.248,0.029l-0.247,0.031l-0.244,0.034l-0.242,0.035l-0.24,0.038l-0.238,0.041l-0.236,0.042l-0.233,0.045l-0.232,0.047l-0.229,0.05l-0.227,0.052l-0.225,0.054l-0.223,0.056l-0.22,0.059l-0.219,0.061l-0.216,0.063l-0.214,0.066l-0.212,0.068l-0.21,0.07l-0.208,0.072l-0.205,0.075l-0.204,0.077l-0.201,0.08l-0.199,0.082l-0.197,0.084l-0.195,0.086l-0.193,0.089l-0.095,0.045l-0.095,0.045l-0.095,0.047l-0.093,0.047l-0.094,0.047l-0.093,0.048l-0.092,0.049l-0.092,0.049l-0.091,0.05l-0.091,0.05l-0.09,0.051l-0.089,0.052l-0.089,0.052l-0.089,0.052l-0.088,0.054l-0.087,0.053l-0.087,0.055l-0.087,0.055l-0.085,0.055l-0.086,0.057l-0.084,0.056l-0.085,0.057l-0.083,0.058l-0.084,0.059l-0.082,0.059l-0.082,0.059l-0.082,0.06l-0.081,0.061l-0.08,0.061l-0.08,0.062l-0.079,0.063l-0.079,0.063l-0.079,0.063l-0.077,0.065l-0.078,0.064l-0.076,0.066l-0.076,0.066l-0.076,0.066l-0.075,0.067l-0.075,0.068l-0.074,0.068l-0.073,0.069l-0.073,0.069l-0.072,0.07l-0.072,0.071l-0.071,0.071l-0.071,0.071l-0.07,0.072l-0.07,0.073l-0.069,0.074l-0.069,0.074l-0.068,0.074l-0.068,0.075l-0.067,0.076l-0.066,0.076l-0.066,0.077l-0.065,0.077l-0.065,0.078l-0.064,0.079l-0.064,0.079l-0.063,0.08l-0.063,0.08l-0.062,0.081l-0.062,0.081l-0.061,0.082l-0.06,0.083l-0.06,0.083l-0.06,0.084l-0.059,0.084l-0.058,0.085l-0.058,0.086l-0.057,0.086l-0.057,0.086l-0.056,0.088l-0.056,0.087l-0.055,0.089l-0.055,0.089l-0.054,0.089l-0.054,0.09l-0.053,0.091l-0.052,0.091l-0.052,0.092l-0.102,0.185l-0.1,0.188l-0.098,0.19l-0.096,0.192l-0.094,0.195l-0.091,0.196l-0.089,0.2l-0.088,0.201l-0.085,0.204l-0.083,0.206l-0.08,0.208l-0.079,0.211l-0.076,0.213l-0.074,0.215l-0.073,0.218l-0.07,0.219l-0.067,0.223l-0.066,0.224l-0.063,0.227l-0.062,0.229l-0.059,0.231l-0.057,0.234l-0.055,0.236l-0.053,0.238l-0.05,0.241l-0.049,0.243l-0.046,0.245l-0.044,0.247l-0.042,0.25l-0.04,0.252l-0.038,0.255l-0.035,0.256l-0.033,0.259l-0.032,0.262l-0.029,0.263l-0.027,0.266l-0.024,0.268l-0.023,0.271l-0.02,0.273l-0.019,0.275l-0.016,0.277l-0.014,0.28l-0.012,0.282l-0.009,0.284l-0.008,0.287l-0.005,0.289l-0.004,0.291l-0.001,0.294l0,91.233l14.72,0l0,-40.327l16.867,0l0,40.327l14.72,0l0,-91.233l-0.001,-0.294l-0.003,-0.291l-0.006,-0.289l-0.007,-0.287l-0.01,-0.284l-0.012,-0.282l-0.014,-0.28l-0.016,-0.277l-0.018,-0.275l-0.021,-0.273l-0.022,-0.271l-0.025,-0.268l-0.027,-0.266l-0.029,-0.263l-0.031,-0.262l-0.033,-0.259l-0.036,-0.256l-0.038,-0.255l-0.039,-0.252l-0.042,-0.25l-0.045,-0.247l-0.046,-0.245l-0.048,-0.243l-0.051,-0.241l-0.053,-0.238l-0.055,-0.236l-0.057,-0.234l-0.059,-0.231l-0.061,-0.229l-0.064,-0.227l-0.065,-0.224l-0.068,-0.223l-0.07,-0.219l-0.072,-0.218l-0.074,-0.215l-0.077,-0.213l-0.078,-0.211l-0.081,-0.208l-0.083,-0.206l-0.085,-0.204l-0.087,-0.201l-0.089,-0.2l-0.092,-0.196l-0.094,-0.195l-0.095,-0.192l-0.098,-0.19l-0.1,-0.188l-0.103,-0.185l-0.052,-0.092l-0.052,-0.091l-0.053,-0.091l-0.054,-0.09l-0.054,-0.089l-0.054,-0.089l-0.055,-0.089l-0.056,-0.087l-0.056,-0.088l-0.057,-0.086l-0.057,-0.086l-0.058,-0.086l-0.059,-0.085l-0.059,-0.084l-0.059,-0.084l-0.06,-0.083l-0.061,-0.083l-0.061,-0.082l-0.061,-0.081l-0.062,-0.081l-0.063,-0.08l-0.063,-0.08l-0.064,-0.079l-0.064,-0.079l-0.065,-0.078l-0.066,-0.077l-0.066,-0.077l-0.066,-0.076l-0.067,-0.076l-0.068,-0.075l-0.068,-0.074l-0.068,-0.074l-0.069,-0.074l-0.07,-0.073l-0.07,-0.072l-0.071,-0.071l-0.071,-0.071l-0.072,-0.071l-0.073,-0.07l-0.073,-0.069l-0.073,-0.069l-0.074,-0.068l-0.075,-0.068l-0.075,-0.067l-0.075,-0.066l-0.076,-0.066l-0.077,-0.066l-0.077,-0.064l-0.078,-0.065l-0.078,-0.063l-0.079,-0.063l-0.08,-0.063l-0.079,-0.062l-0.081,-0.061l-0.081,-0.061l-0.081,-0.06l-0.082,-0.059l-0.083,-0.059l-0.083,-0.059l-0.084,-0.058l-0.084,-0.057l-0.085,-0.056l-0.085,-0.057l-0.086,-0.055l-0.086,-0.055l-0.087,-0.055l-0.088,-0.053l-0.088,-0.054l-0.088,-0.052l-0.089,-0.052l-0.09,-0.052l-0.09,-0.051l-0.091,-0.05l-0.091,-0.05l-0.092,-0.049l-0.092,-0.049l-0.093,-0.048l-0.093,-0.047l-0.094,-0.047l-0.094,-0.047l-0.095,-0.045l-0.096,-0.045l-0.193,-0.089l-0.194,-0.086l-0.197,-0.084l-0.199,-0.082l-0.202,-0.08l-0.203,-0.077l-0.206,-0.075l-0.207,-0.072l-0.21,-0.07l-0.212,-0.068l-0.214,-0.066l-0.217,-0.063l-0.218,-0.061l-0.221,-0.059l-0.223,-0.056l-0.225,-0.054l-0.227,-0.052l-0.229,-0.05l-0.231,-0.047l-0.234,-0.045l-0.236,-0.042l-0.237,-0.041l-0.24,-0.038l-0.243,-0.035l-0.244,-0.034l-0.246,-0.031l-0.249,-0.029l-0.251,-0.026l-0.253,-0.024l-0.255,-0.022l-0.257,-0.02l-0.259,-0.017l-0.262,-0.015l-0.264,-0.013l-0.265,-0.01l-0.268,-0.008l-0.271,-0.006l-0.272,-0.003l-0.274,-0.001l-11.04,0Zm7.613,13.34l0.1,0.001l0.098,0.002l0.098,0.003l0.097,0.003l0.097,0.005l0.095,0.005l0.095,0.006l0.094,0.007l0.093,0.007l0.092,0.008l0.092,0.009l0.091,0.01l0.09,0.011l0.089,0.011l0.088,0.012l0.088,0.013l0.087,0.014l0.086,0.015l0.085,0.015l0.085,0.016l0.084,0.017l0.082,0.018l0.083,0.018l0.081,0.019l0.081,0.02l0.079,0.021l0.079,0.022l0.079,0.022l0.077,0.023l0.077,0.024l0.076,0.025l0.075,0.026l0.074,0.026l0.073,0.027l0.073,0.028l0.072,0.029l0.071,0.029l0.071,0.031l0.069,0.031l0.069,0.031l0.068,0.033l0.067,0.033l0.067,0.035l0.065,0.035l0.065,0.035l0.064,0.037l0.063,0.037l0.063,0.038l0.062,0.039l0.061,0.04l0.06,0.041l0.059,0.041l0.059,0.042l0.057,0.043l0.057,0.043l0.057,0.045l0.055,0.045l0.055,0.046l0.054,0.047l0.053,0.047l0.052,0.049l0.051,0.049l0.051,0.05l0.05,0.05l0.049,0.052l0.048,0.052l0.048,0.053l0.047,0.054l0.046,0.055l0.045,0.055l0.044,0.056l0.044,0.057l0.043,0.058l0.042,0.059l0.041,0.059l0.041,0.06l0.039,0.061l0.039,0.062l0.038,0.062l0.038,0.064l0.036,0.064l0.036,0.065l0.035,0.065l0.034,0.067l0.034,0.067l0.032,0.068l0.032,0.069l0.031,0.069l0.03,0.071l0.03,0.071l0.029,0.072l0.028,0.072l0.027,0.074l0.026,0.074l0.026,0.075l0.024,0.076l0.024,0.077l0.023,0.077l0.023,0.078l0.021,0.079l0.021,0.08l0.02,0.081l0.02,0.081l0.018,0.082l0.018,0.083l0.017,0.084l0.016,0.084l0.015,0.086l0.015,0.086l0.013,0.087l0.013,0.087l0.013,0.089l0.011,0.089l0.011,0.09l0.009,0.091l0.009,0.091l0.009,0.093l0.007,0.093l0.007,0.094l0.006,0.095l0.005,0.095l0.004,0.096l0.004,0.097l0.003,0.098l0.001,0.099l0.002,0.099l0,0.101l0,36.646l-16.867,0l0,-36.646l0.001,-0.101l0.001,-0.099l0.002,-0.099l0.003,-0.098l0.003,-0.097l0.005,-0.096l0.005,-0.095l0.006,-0.095l0.006,-0.094l0.008,-0.093l0.008,-0.093l0.009,-0.091l0.01,-0.091l0.01,-0.09l0.012,-0.089l0.012,-0.089l0.013,-0.087l0.014,-0.087l0.014,-0.086l0.016,-0.086l0.016,-0.084l0.017,-0.084l0.017,-0.083l0.019,-0.082l0.019,-0.081l0.02,-0.081l0.021,-0.08l0.022,-0.079l0.022,-0.078l0.023,-0.077l0.024,-0.077l0.025,-0.076l0.025,-0.075l0.027,-0.074l0.027,-0.074l0.028,-0.072l0.028,-0.072l0.03,-0.071l0.03,-0.071l0.031,-0.069l0.032,-0.069l0.033,-0.068l0.033,-0.067l0.034,-0.067l0.035,-0.065l0.036,-0.065l0.037,-0.064l0.037,-0.064l0.038,-0.062l0.039,-0.062l0.04,-0.061l0.04,-0.06l0.041,-0.059l0.043,-0.059l0.042,-0.058l0.044,-0.057l0.044,-0.056l0.046,-0.055l0.046,-0.055l0.046,-0.054l0.048,-0.053l0.048,-0.052l0.049,-0.052l0.05,-0.05l0.051,-0.05l0.052,-0.049l0.052,-0.049l0.053,-0.047l0.054,-0.047l0.054,-0.046l0.056,-0.045l0.056,-0.045l0.057,-0.043l0.058,-0.043l0.058,-0.042l0.06,-0.041l0.06,-0.041l0.061,-0.04l0.062,-0.039l0.062,-0.038l0.063,-0.037l0.064,-0.037l0.065,-0.035l0.066,-0.035l0.066,-0.035l0.067,-0.033l0.068,-0.033l0.069,-0.031l0.07,-0.031l0.07,-0.031l0.071,-0.029l0.072,-0.029l0.073,-0.028l0.074,-0.027l0.074,-0.026l0.075,-0.026l0.076,-0.025l0.076,-0.024l0.078,-0.023l0.078,-0.022l0.079,-0.022l0.08,-0.021l0.08,-0.02l0.082,-0.019l0.082,-0.018l0.083,-0.018l0.084,-0.017l0.084,-0.016l0.085,-0.015l0.086,-0.015l0.087,-0.014l0.088,-0.013l0.088,-0.012l0.09,-0.011l0.09,-0.011l0.09,-0.01l0.092,-0.009l0.092,-0.008l0.094,-0.007l0.094,-0.007l0.094,-0.006l0.096,-0.005l0.096,-0.005l0.097,-0.003l0.098,-0.003l0.099,-0.002l0.099,-0.001l0.1,0l3.987,0l0.1,0Zm-4.081,3l-0.082,0l-0.076,0.001l-0.074,0.001l-0.073,0.002l-0.072,0.003l-0.071,0.003l-0.069,0.004l-0.069,0.004l-0.067,0.005l-0.066,0.005l-0.065,0.006l-0.064,0.006l-0.062,0.007l-0.062,0.007l-0.06,0.008l-0.059,0.008l-0.057,0.009l-0.057,0.009l-0.055,0.009l-0.055,0.01l-0.053,0.01l-0.051,0.01l-0.051,0.011l-0.05,0.011l-0.048,0.012l-0.047,0.011l-0.046,0.012l-0.045,0.013l-0.044,0.012l-0.042,0.013l-0.042,0.013l-0.04,0.013l-0.04,0.014l-0.038,0.013l-0.037,0.014l-0.036,0.014l-0.036,0.014l-0.034,0.014l-0.033,0.014l-0.032,0.015l-0.031,0.014l-0.031,0.015l-0.029,0.014l-0.029,0.015l-0.028,0.015l-0.027,0.015l-0.026,0.015l-0.025,0.015l-0.025,0.015l-0.024,0.015l-0.023,0.015l-0.023,0.015l-0.022,0.016l-0.022,0.015l-0.021,0.016l-0.02,0.015l-0.02,0.016l-0.019,0.016l-0.019,0.016l-0.019,0.016l-0.019,0.017l-0.017,0.016l-0.018,0.017l-0.017,0.017l-0.017,0.017l-0.017,0.018l-0.017,0.018l-0.016,0.018l-0.016,0.019l-0.016,0.019l-0.016,0.019l-0.016,0.02l-0.015,0.021l-0.016,0.021l-0.015,0.021l-0.016,0.022l-0.015,0.023l-0.015,0.023l-0.015,0.024l-0.015,0.025l-0.015,0.025l-0.015,0.026l-0.015,0.028l-0.015,0.027l-0.015,0.029l-0.015,0.029l-0.014,0.031l-0.015,0.031l-0.014,0.032l-0.014,0.033l-0.014,0.035l-0.014,0.035l-0.014,0.036l-0.014,0.037l-0.014,0.039l-0.013,0.039l-0.013,0.04l-0.013,0.042l-0.013,0.043l-0.013,0.043l-0.012,0.045l-0.012,0.046l-0.012,0.047l-0.011,0.049l-0.011,0.049l-0.011,0.051l-0.01,0.052l-0.011,0.053l-0.009,0.054l-0.01,0.055l-0.009,0.057l-0.008,0.058l-0.008,0.059l-0.008,0.06l-0.007,0.061l-0.007,0.062l-0.006,0.064l-0.006,0.065l-0.005,0.066l-0.005,0.067l-0.004,0.069l-0.004,0.069l-0.003,0.071l-0.003,0.072l-0.002,0.073l-0.001,0.075l-0.001,0.075l-0.001,0.083l0,33.64l10.867,0l0,-33.64l0,-0.083l-0.001,-0.075l-0.002,-0.075l-0.002,-0.073l-0.002,-0.072l-0.004,-0.07l-0.003,-0.07l-0.004,-0.069l-0.005,-0.067l-0.006,-0.066l-0.005,-0.065l-0.007,-0.063l-0.006,-0.063l-0.008,-0.061l-0.007,-0.061l-0.008,-0.058l-0.009,-0.058l-0.009,-0.057l-0.009,-0.055l-0.01,-0.054l-0.01,-0.053l-0.011,-0.052l-0.01,-0.051l-0.012,-0.049l-0.011,-0.049l-0.012,-0.047l-0.012,-0.046l-0.012,-0.045l-0.013,-0.043l-0.012,-0.043l-0.013,-0.042l-0.014,-0.04l-0.013,-0.039l-0.014,-0.039l-0.013,-0.037l-0.014,-0.036l-0.014,-0.035l-0.014,-0.035l-0.015,-0.033l-0.014,-0.032l-0.014,-0.031l-0.015,-0.031l-0.015,-0.029l-0.014,-0.029l-0.015,-0.027l-0.015,-0.028l-0.015,-0.026l-0.015,-0.025l-0.015,-0.025l-0.015,-0.024l-0.016,-0.023l-0.015,-0.023l-0.015,-0.022l-0.016,-0.021l-0.015,-0.021l-0.016,-0.021l-0.015,-0.02l-0.016,-0.019l-0.016,-0.019l-0.017,-0.019l-0.016,-0.018l-0.017,-0.018l-0.016,-0.018l-0.017,-0.017l-0.018,-0.017l-0.017,-0.017l-0.018,-0.016l-0.018,-0.017l-0.019,-0.016l-0.019,-0.016l-0.02,-0.016l-0.02,-0.016l-0.02,-0.015l-0.021,-0.016l-0.021,-0.015l-0.022,-0.016l-0.023,-0.015l-0.024,-0.015l-0.024,-0.015l-0.024,-0.015l-0.026,-0.015l-0.026,-0.015l-0.027,-0.015l-0.028,-0.015l-0.028,-0.015l-0.03,-0.014l-0.03,-0.015l-0.031,-0.014l-0.033,-0.015l-0.033,-0.014l-0.034,-0.014l-0.035,-0.014l-0.036,-0.014l-0.038,-0.014l-0.038,-0.013l-0.039,-0.014l-0.041,-0.013l-0.041,-0.013l-0.043,-0.013l-0.044,-0.012l-0.044,-0.013l-0.047,-0.012l-0.047,-0.011l-0.048,-0.012l-0.05,-0.011l-0.05,-0.011l-0.052,-0.01l-0.053,-0.01l-0.054,-0.01l-0.056,-0.009l-0.056,-0.009l-0.058,-0.009l-0.059,-0.008l-0.06,-0.008l-0.061,-0.007l-0.063,-0.007l-0.063,-0.006l-0.065,-0.006l-0.066,-0.005l-0.068,-0.005l-0.068,-0.004l-0.07,-0.004l-0.071,-0.003l-0.072,-0.003l-0.073,-0.002l-0.074,-0.001l-0.075,-0.001l-0.083,0l-3.975,0Z" style="fill:#fc3;"/><path d="M224.104,163l-20.72,0l0,-24.465l-9.794,-31.092l0,55.557l-20.72,0l0,-116.093l19.959,0l10.555,35.557l0,-35.557l20.72,0l0,116.093Zm-48.234,-113.093l0,110.093l14.72,0l0,-72.067l15.794,50.14l0,21.927l14.72,0l0,-110.093l-14.72,0l0,53.206l-15.794,-53.206l-14.72,0Z" style="fill:#fc3;"/><path d="M262.343,46.908l0.298,0.004l0.296,0.006l0.294,0.009l0.293,0.011l0.29,0.014l0.289,0.016l0.288,0.019l0.285,0.022l0.284,0.024l0.282,0.027l0.28,0.029l0.279,0.032l0.277,0.035l0.275,0.037l0.273,0.04l0.272,0.042l0.27,0.046l0.268,0.048l0.266,0.051l0.265,0.053l0.262,0.056l0.261,0.059l0.26,0.062l0.257,0.065l0.256,0.067l0.254,0.071l0.252,0.073l0.25,0.076l0.248,0.079l0.247,0.082l0.245,0.084l0.242,0.088l0.241,0.091l0.239,0.093l0.237,0.097l0.235,0.099l0.233,0.102l0.231,0.106l0.229,0.108l0.222,0.109l0.117,0.059l0.112,0.058l0.112,0.058l0.111,0.059l0.11,0.06l0.11,0.061l0.11,0.061l0.108,0.062l0.109,0.063l0.108,0.064l0.107,0.064l0.106,0.065l0.106,0.066l0.106,0.066l0.105,0.068l0.104,0.068l0.104,0.069l0.103,0.069l0.103,0.071l0.102,0.071l0.101,0.072l0.101,0.072l0.1,0.073l0.1,0.074l0.099,0.075l0.098,0.076l0.098,0.076l0.097,0.077l0.096,0.078l0.096,0.078l0.095,0.079l0.095,0.08l0.094,0.081l0.093,0.081l0.093,0.082l0.092,0.083l0.091,0.083l0.091,0.085l0.09,0.085l0.089,0.085l0.089,0.087l0.088,0.087l0.087,0.087l0.087,0.089l0.085,0.089l0.086,0.089l0.084,0.091l0.084,0.091l0.084,0.092l0.082,0.092l0.082,0.093l0.081,0.094l0.08,0.095l0.08,0.095l0.079,0.096l0.078,0.096l0.078,0.097l0.077,0.098l0.076,0.098l0.076,0.099l0.074,0.1l0.074,0.1l0.074,0.101l0.072,0.101l0.072,0.102l0.071,0.103l0.071,0.103l0.07,0.104l0.069,0.104l0.068,0.106l0.068,0.105l0.067,0.106l0.066,0.107l0.065,0.107l0.065,0.109l0.064,0.108l0.063,0.109l0.065,0.115l0.121,0.216l0.12,0.224l0.117,0.225l0.114,0.228l0.112,0.23l0.109,0.232l0.106,0.234l0.103,0.236l0.1,0.238l0.097,0.241l0.095,0.242l0.092,0.244l0.089,0.247l0.086,0.248l0.084,0.25l0.081,0.253l0.078,0.254l0.076,0.256l0.073,0.259l0.07,0.26l0.068,0.262l0.065,0.264l0.062,0.266l0.06,0.267l0.057,0.27l0.054,0.271l0.052,0.274l0.05,0.275l0.047,0.277l0.044,0.28l0.042,0.281l0.04,0.283l0.037,0.284l0.034,0.287l0.032,0.289l0.03,0.29l0.027,0.292l0.025,0.295l0.022,0.296l0.02,0.298l0.018,0.3l0.015,0.302l0.013,0.304l0.01,0.305l0.009,0.308l0.005,0.309l0.004,0.312l0.001,0.308l0,18.492l-20.72,0l0,-17.407l0,-0.082l-0.001,-0.075l-0.002,-0.074l-0.002,-0.073l-0.002,-0.071l-0.004,-0.07l-0.003,-0.069l-0.005,-0.068l-0.005,-0.066l-0.005,-0.066l-0.006,-0.064l-0.006,-0.063l-0.007,-0.062l-0.007,-0.061l-0.008,-0.059l-0.008,-0.058l-0.009,-0.057l-0.009,-0.057l-0.01,-0.054l-0.009,-0.053l-0.011,-0.053l-0.01,-0.052l-0.011,-0.049l-0.011,-0.049l-0.012,-0.048l-0.012,-0.046l-0.012,-0.046l-0.012,-0.044l-0.013,-0.043l-0.013,-0.042l-0.013,-0.041l-0.013,-0.04l-0.014,-0.038l-0.014,-0.038l-0.013,-0.037l-0.014,-0.036l-0.015,-0.034l-0.014,-0.034l-0.014,-0.033l-0.015,-0.032l-0.014,-0.03l-0.015,-0.03l-0.015,-0.03l-0.015,-0.028l-0.015,-0.028l-0.015,-0.026l-0.015,-0.026l-0.015,-0.025l-0.016,-0.025l-0.015,-0.024l-0.016,-0.023l-0.015,-0.023l-0.016,-0.022l-0.016,-0.021l-0.016,-0.021l-0.016,-0.021l-0.016,-0.02l-0.017,-0.02l-0.016,-0.019l-0.017,-0.019l-0.017,-0.018l-0.017,-0.018l-0.018,-0.018l-0.018,-0.018l-0.018,-0.018l-0.018,-0.017l-0.019,-0.017l-0.019,-0.017l-0.02,-0.016l-0.02,-0.017l-0.021,-0.016l-0.021,-0.017l-0.022,-0.016l-0.022,-0.016l-0.023,-0.016l-0.023,-0.016l-0.025,-0.016l-0.024,-0.016l-0.026,-0.016l-0.027,-0.015l-0.026,-0.016l-0.028,-0.016l-0.029,-0.015l-0.03,-0.016l-0.03,-0.015l-0.032,-0.015l-0.033,-0.015l-0.033,-0.015l-0.034,-0.015l-0.035,-0.015l-0.037,-0.015l-0.037,-0.015l-0.039,-0.014l-0.039,-0.014l-0.041,-0.014l-0.042,-0.014l-0.042,-0.014l-0.044,-0.013l-0.045,-0.013l-0.047,-0.013l-0.047,-0.013l-0.049,-0.012l-0.049,-0.013l-0.051,-0.011l-0.052,-0.012l-0.054,-0.011l-0.054,-0.011l-0.056,-0.01l-0.057,-0.01l-0.058,-0.01l-0.059,-0.009l-0.061,-0.008l-0.061,-0.009l-0.063,-0.008l-0.064,-0.007l-0.066,-0.007l-0.066,-0.006l-0.068,-0.006l-0.069,-0.006l-0.07,-0.004l-0.071,-0.005l-0.073,-0.004l-0.073,-0.003l-0.075,-0.003l-0.076,-0.002l-0.077,-0.001l-0.079,-0.001l-0.085,0l-2.901,0l-0.071,0l-0.064,0.001l-0.062,0.001l-0.061,0.002l-0.06,0.003l-0.059,0.002l-0.058,0.004l-0.057,0.004l-0.055,0.004l-0.055,0.005l-0.053,0.005l-0.052,0.006l-0.051,0.006l-0.05,0.006l-0.049,0.007l-0.047,0.008l-0.047,0.007l-0.045,0.008l-0.044,0.008l-0.044,0.009l-0.042,0.009l-0.041,0.009l-0.039,0.009l-0.039,0.01l-0.038,0.01l-0.037,0.01l-0.035,0.01l-0.035,0.011l-0.034,0.01l-0.032,0.011l-0.032,0.011l-0.031,0.011l-0.029,0.011l-0.029,0.012l-0.028,0.011l-0.027,0.012l-0.026,0.011l-0.026,0.012l-0.025,0.012l-0.023,0.011l-0.024,0.012l-0.022,0.012l-0.022,0.012l-0.021,0.012l-0.02,0.012l-0.02,0.012l-0.019,0.012l-0.019,0.012l-0.019,0.013l-0.017,0.012l-0.018,0.013l-0.017,0.012l-0.016,0.013l-0.017,0.013l-0.015,0.013l-0.016,0.013l-0.015,0.014l-0.016,0.013l-0.015,0.014l-0.014,0.014l-0.015,0.015l-0.014,0.015l-0.015,0.015l-0.014,0.015l-0.014,0.016l-0.014,0.017l-0.014,0.017l-0.015,0.017l-0.013,0.018l-0.014,0.018l-0.015,0.019l-0.014,0.02l-0.013,0.02l-0.015,0.021l-0.014,0.022l-0.014,0.022l-0.014,0.023l-0.014,0.024l-0.014,0.025l-0.014,0.025l-0.015,0.027l-0.014,0.028l-0.014,0.028l-0.014,0.029l-0.014,0.03l-0.014,0.032l-0.014,0.032l-0.014,0.033l-0.014,0.034l-0.013,0.035l-0.014,0.037l-0.013,0.037l-0.014,0.038l-0.013,0.04l-0.013,0.041l-0.013,0.041l-0.013,0.043l-0.012,0.045l-0.012,0.045l-0.012,0.046l-0.012,0.048l-0.012,0.048l-0.011,0.05l-0.011,0.051l-0.01,0.052l-0.011,0.054l-0.01,0.054l-0.009,0.056l-0.01,0.057l-0.008,0.058l-0.009,0.06l-0.008,0.06l-0.008,0.061l-0.007,0.063l-0.007,0.064l-0.006,0.065l-0.006,0.067l-0.005,0.067l-0.005,0.069l-0.005,0.07l-0.004,0.07l-0.003,0.067l-0.006,0.153l-0.003,0.152l-0.001,0.167l0,70.517l0,0.082l0.001,0.075l0.001,0.074l0.003,0.072l0.002,0.071l0.003,0.071l0.004,0.069l0.005,0.067l0.004,0.067l0.006,0.066l0.006,0.064l0.006,0.063l0.007,0.062l0.007,0.06l0.008,0.06l0.008,0.058l0.009,0.057l0.009,0.056l0.009,0.055l0.01,0.053l0.01,0.053l0.011,0.051l0.011,0.05l0.011,0.049l0.012,0.048l0.012,0.046l0.012,0.045l0.012,0.045l0.013,0.043l0.013,0.042l0.013,0.041l0.013,0.039l0.013,0.039l0.014,0.038l0.014,0.037l0.014,0.035l0.014,0.035l0.015,0.034l0.014,0.033l0.015,0.031l0.014,0.031l0.015,0.03l0.015,0.029l0.015,0.029l0.015,0.027l0.015,0.027l0.015,0.026l0.015,0.025l0.016,0.025l0.015,0.024l0.015,0.023l0.016,0.022l0.016,0.023l0.016,0.021l0.015,0.021l0.017,0.02l0.016,0.021l0.016,0.019l0.017,0.019l0.017,0.019l0.017,0.019l0.017,0.018l0.018,0.018l0.017,0.018l0.018,0.017l0.019,0.018l0.019,0.016l0.019,0.017l0.02,0.017l0.02,0.017l0.021,0.016l0.021,0.016l0.021,0.017l0.023,0.016l0.023,0.016l0.023,0.016l0.024,0.016l0.025,0.016l0.026,0.015l0.026,0.016l0.027,0.016l0.028,0.015l0.029,0.016l0.03,0.015l0.03,0.016l0.032,0.015l0.032,0.015l0.033,0.015l0.035,0.015l0.035,0.015l0.036,0.015l0.038,0.014l0.039,0.015l0.039,0.014l0.041,0.014l0.041,0.014l0.043,0.013l0.044,0.014l0.045,0.013l0.046,0.013l0.048,0.013l0.048,0.012l0.05,0.012l0.051,0.012l0.052,0.011l0.053,0.012l0.055,0.01l0.056,0.011l0.057,0.01l0.058,0.009l0.059,0.009l0.06,0.009l0.062,0.008l0.063,0.008l0.064,0.008l0.065,0.007l0.067,0.006l0.068,0.006l0.068,0.005l0.071,0.005l0.071,0.004l0.072,0.004l0.074,0.004l0.075,0.002l0.076,0.002l0.077,0.002l0.079,0.001l0.085,0l6.807,0l0,-22.52l-8.893,0l0,-18.267l29.605,0l0.17,60.118l-0.008,0.009l-31.373,0l-0.294,-0.001l-0.297,-0.004l-0.296,-0.006l-0.294,-0.009l-0.293,-0.011l-0.291,-0.014l-0.289,-0.017l-0.287,-0.019l-0.285,-0.021l-0.284,-0.024l-0.282,-0.027l-0.281,-0.029l-0.278,-0.032l-0.277,-0.035l-0.275,-0.037l-0.273,-0.04l-0.272,-0.043l-0.27,-0.045l-0.268,-0.048l-0.266,-0.051l-0.265,-0.053l-0.263,-0.057l-0.261,-0.059l-0.259,-0.062l-0.257,-0.064l-0.256,-0.068l-0.254,-0.07l-0.252,-0.073l-0.25,-0.076l-0.249,-0.079l-0.246,-0.082l-0.245,-0.085l-0.243,-0.087l-0.24,-0.091l-0.239,-0.093l-0.237,-0.097l-0.235,-0.099l-0.233,-0.103l-0.231,-0.105l-0.229,-0.109l-0.222,-0.109l-0.117,-0.059l-0.112,-0.057l-0.112,-0.059l-0.111,-0.059l-0.11,-0.06l-0.11,-0.06l-0.11,-0.061l-0.109,-0.063l-0.108,-0.062l-0.108,-0.064l-0.107,-0.064l-0.107,-0.065l-0.106,-0.066l-0.105,-0.067l-0.105,-0.067l-0.104,-0.068l-0.104,-0.069l-0.103,-0.07l-0.103,-0.07l-0.102,-0.071l-0.101,-0.072l-0.101,-0.073l-0.1,-0.073l-0.1,-0.074l-0.099,-0.075l-0.098,-0.075l-0.098,-0.076l-0.097,-0.077l-0.096,-0.078l-0.096,-0.078l-0.096,-0.08l-0.094,-0.08l-0.094,-0.08l-0.093,-0.082l-0.093,-0.082l-0.092,-0.083l-0.091,-0.083l-0.091,-0.084l-0.09,-0.085l-0.089,-0.086l-0.089,-0.086l-0.088,-0.087l-0.087,-0.088l-0.087,-0.088l-0.086,-0.089l-0.085,-0.09l-0.085,-0.09l-0.083,-0.091l-0.084,-0.092l-0.082,-0.093l-0.082,-0.093l-0.081,-0.094l-0.081,-0.094l-0.079,-0.095l-0.079,-0.096l-0.079,-0.096l-0.077,-0.097l-0.077,-0.098l-0.076,-0.098l-0.076,-0.099l-0.075,-0.1l-0.074,-0.1l-0.073,-0.101l-0.073,-0.101l-0.071,-0.102l-0.072,-0.103l-0.07,-0.103l-0.07,-0.104l-0.069,-0.105l-0.068,-0.105l-0.068,-0.106l-0.067,-0.106l-0.066,-0.106l-0.065,-0.108l-0.065,-0.108l-0.064,-0.109l-0.063,-0.109l-0.066,-0.114l-0.12,-0.216l-0.12,-0.224l-0.117,-0.225l-0.115,-0.228l-0.111,-0.23l-0.109,-0.232l-0.106,-0.234l-0.103,-0.236l-0.1,-0.239l-0.098,-0.24l-0.094,-0.242l-0.092,-0.245l-0.089,-0.246l-0.087,-0.248l-0.083,-0.251l-0.081,-0.252l-0.079,-0.254l-0.075,-0.257l-0.073,-0.258l-0.07,-0.26l-0.068,-0.262l-0.065,-0.264l-0.062,-0.266l-0.06,-0.268l-0.057,-0.269l-0.055,-0.272l-0.052,-0.273l-0.049,-0.276l-0.047,-0.277l-0.045,-0.279l-0.041,-0.281l-0.04,-0.283l-0.037,-0.285l-0.034,-0.286l-0.033,-0.289l-0.029,-0.29l-0.027,-0.293l-0.025,-0.294l-0.023,-0.296l-0.02,-0.298l-0.017,-0.3l-0.015,-0.302l-0.013,-0.304l-0.011,-0.306l-0.008,-0.307l-0.006,-0.31l-0.003,-0.311l-0.001,-0.308l0,-72.691l0.001,-0.308l0.003,-0.312l0.006,-0.309l0.008,-0.308l0.011,-0.305l0.013,-0.304l0.015,-0.302l0.017,-0.3l0.02,-0.298l0.023,-0.296l0.025,-0.295l0.027,-0.292l0.029,-0.29l0.033,-0.289l0.034,-0.287l0.037,-0.285l0.04,-0.282l0.041,-0.281l0.045,-0.28l0.047,-0.277l0.049,-0.275l0.052,-0.273l0.055,-0.272l0.057,-0.27l0.06,-0.267l0.062,-0.266l0.065,-0.264l0.068,-0.262l0.07,-0.26l0.073,-0.259l0.075,-0.256l0.079,-0.254l0.081,-0.253l0.083,-0.25l0.087,-0.248l0.089,-0.247l0.092,-0.244l0.094,-0.242l0.098,-0.241l0.1,-0.238l0.103,-0.236l0.106,-0.234l0.109,-0.232l0.111,-0.23l0.115,-0.228l0.117,-0.226l0.12,-0.223l0.12,-0.216l0.066,-0.115l0.063,-0.109l0.064,-0.108l0.065,-0.108l0.065,-0.108l0.066,-0.107l0.067,-0.106l0.068,-0.105l0.068,-0.106l0.069,-0.104l0.07,-0.104l0.07,-0.103l0.072,-0.103l0.071,-0.102l0.073,-0.101l0.073,-0.101l0.074,-0.1l0.075,-0.1l0.076,-0.099l0.076,-0.098l0.077,-0.098l0.077,-0.097l0.079,-0.096l0.079,-0.096l0.079,-0.095l0.081,-0.095l0.081,-0.093l0.082,-0.094l0.082,-0.092l0.084,-0.092l0.083,-0.091l0.085,-0.09l0.085,-0.09l0.086,-0.089l0.087,-0.089l0.087,-0.087l0.088,-0.087l0.089,-0.087l0.089,-0.085l0.09,-0.085l0.091,-0.084l0.091,-0.084l0.092,-0.083l0.093,-0.082l0.093,-0.081l0.094,-0.081l0.094,-0.08l0.096,-0.079l0.096,-0.078l0.096,-0.078l0.097,-0.077l0.098,-0.076l0.098,-0.076l0.099,-0.075l0.1,-0.074l0.1,-0.073l0.101,-0.072l0.101,-0.072l0.102,-0.071l0.103,-0.071l0.103,-0.069l0.104,-0.069l0.104,-0.068l0.105,-0.068l0.105,-0.066l0.106,-0.066l0.107,-0.065l0.107,-0.064l0.108,-0.064l0.108,-0.063l0.109,-0.062l0.11,-0.061l0.109,-0.061l0.111,-0.06l0.111,-0.059l0.112,-0.058l0.112,-0.058l0.117,-0.059l0.222,-0.109l0.229,-0.108l0.231,-0.106l0.233,-0.102l0.235,-0.099l0.237,-0.097l0.239,-0.093l0.24,-0.091l0.243,-0.088l0.245,-0.084l0.246,-0.082l0.249,-0.079l0.25,-0.076l0.252,-0.073l0.254,-0.071l0.256,-0.067l0.257,-0.065l0.259,-0.062l0.261,-0.059l0.263,-0.056l0.265,-0.053l0.266,-0.051l0.268,-0.048l0.27,-0.046l0.272,-0.042l0.273,-0.04l0.275,-0.037l0.277,-0.035l0.278,-0.032l0.281,-0.029l0.282,-0.027l0.284,-0.024l0.285,-0.022l0.287,-0.019l0.289,-0.016l0.291,-0.014l0.293,-0.011l0.294,-0.009l0.296,-0.006l0.297,-0.004l0.294,-0.001l9.519,0l0.293,0.001Zm-9.806,2.999l-0.274,0.001l-0.273,0.003l-0.27,0.006l-0.268,0.008l-0.266,0.01l-0.263,0.013l-0.262,0.015l-0.259,0.017l-0.257,0.019l-0.256,0.022l-0.252,0.024l-0.251,0.026l-0.249,0.029l-0.246,0.03l-0.245,0.034l-0.242,0.035l-0.24,0.038l-0.238,0.04l-0.235,0.042l-0.234,0.044l-0.231,0.047l-0.23,0.049l-0.227,0.052l-0.225,0.053l-0.222,0.056l-0.221,0.058l-0.218,0.061l-0.217,0.063l-0.214,0.065l-0.212,0.067l-0.21,0.07l-0.208,0.072l-0.205,0.074l-0.204,0.077l-0.201,0.078l-0.199,0.081l-0.197,0.084l-0.195,0.085l-0.192,0.088l-0.191,0.09l-0.188,0.093l-0.093,0.047l-0.093,0.048l-0.093,0.048l-0.091,0.049l-0.092,0.049l-0.09,0.05l-0.09,0.051l-0.09,0.051l-0.089,0.051l-0.089,0.053l-0.088,0.052l-0.087,0.054l-0.087,0.054l-0.086,0.054l-0.086,0.055l-0.085,0.056l-0.085,0.056l-0.084,0.057l-0.084,0.057l-0.083,0.058l-0.083,0.059l-0.082,0.059l-0.081,0.06l-0.081,0.06l-0.081,0.061l-0.08,0.061l-0.079,0.062l-0.079,0.063l-0.078,0.063l-0.078,0.063l-0.077,0.064l-0.077,0.065l-0.076,0.066l-0.076,0.066l-0.075,0.066l-0.074,0.067l-0.074,0.068l-0.074,0.068l-0.073,0.069l-0.072,0.069l-0.072,0.07l-0.071,0.071l-0.071,0.071l-0.07,0.071l-0.07,0.073l-0.069,0.072l-0.069,0.074l-0.068,0.074l-0.067,0.074l-0.067,0.075l-0.067,0.076l-0.066,0.076l-0.065,0.077l-0.065,0.077l-0.064,0.078l-0.064,0.079l-0.063,0.079l-0.063,0.079l-0.062,0.081l-0.062,0.08l-0.061,0.082l-0.06,0.082l-0.06,0.082l-0.06,0.083l-0.059,0.084l-0.058,0.084l-0.058,0.085l-0.057,0.085l-0.057,0.086l-0.056,0.086l-0.056,0.088l-0.055,0.087l-0.055,0.088l-0.054,0.089l-0.053,0.09l-0.053,0.089l-0.053,0.091l-0.052,0.091l-0.102,0.184l-0.1,0.186l-0.098,0.188l-0.096,0.191l-0.093,0.193l-0.092,0.195l-0.089,0.198l-0.087,0.199l-0.085,0.203l-0.083,0.204l-0.081,0.207l-0.078,0.209l-0.077,0.211l-0.074,0.213l-0.072,0.216l-0.07,0.218l-0.068,0.221l-0.066,0.222l-0.063,0.225l-0.062,0.227l-0.059,0.23l-0.057,0.232l-0.055,0.234l-0.052,0.236l-0.051,0.239l-0.048,0.241l-0.047,0.243l-0.044,0.245l-0.042,0.248l-0.04,0.25l-0.037,0.252l-0.036,0.255l-0.033,0.257l-0.031,0.259l-0.029,0.261l-0.027,0.264l-0.025,0.266l-0.023,0.269l-0.02,0.27l-0.018,0.273l-0.017,0.275l-0.014,0.278l-0.011,0.279l-0.01,0.282l-0.008,0.285l-0.005,0.286l-0.003,0.289l-0.001,0.291l0,72.68l0.001,0.291l0.003,0.289l0.005,0.287l0.008,0.284l0.01,0.282l0.011,0.28l0.014,0.277l0.017,0.276l0.018,0.272l0.02,0.271l0.023,0.268l0.025,0.266l0.027,0.264l0.029,0.262l0.031,0.259l0.033,0.257l0.036,0.254l0.037,0.253l0.04,0.25l0.042,0.247l0.044,0.246l0.047,0.243l0.048,0.241l0.051,0.239l0.052,0.236l0.055,0.234l0.057,0.232l0.059,0.229l0.062,0.228l0.063,0.224l0.066,0.223l0.068,0.221l0.07,0.218l0.072,0.215l0.074,0.214l0.077,0.211l0.078,0.209l0.081,0.207l0.083,0.204l0.085,0.202l0.087,0.2l0.089,0.198l0.092,0.195l0.093,0.193l0.096,0.19l0.098,0.189l0.1,0.186l0.102,0.184l0.052,0.091l0.053,0.09l0.053,0.09l0.053,0.09l0.054,0.088l0.055,0.088l0.055,0.088l0.056,0.087l0.056,0.087l0.057,0.086l0.057,0.085l0.058,0.085l0.058,0.084l0.059,0.084l0.06,0.083l0.06,0.082l0.06,0.082l0.061,0.081l0.062,0.081l0.062,0.08l0.063,0.08l0.063,0.079l0.064,0.079l0.064,0.077l0.065,0.078l0.065,0.077l0.066,0.076l0.067,0.075l0.067,0.076l0.067,0.074l0.068,0.074l0.069,0.073l0.069,0.073l0.07,0.072l0.07,0.072l0.071,0.071l0.071,0.071l0.072,0.069l0.072,0.07l0.073,0.069l0.074,0.068l0.074,0.068l0.074,0.067l0.075,0.066l0.076,0.066l0.076,0.065l0.077,0.065l0.077,0.064l0.078,0.064l0.078,0.063l0.079,0.063l0.079,0.062l0.08,0.061l0.081,0.061l0.081,0.06l0.081,0.06l0.082,0.059l0.083,0.058l0.083,0.058l0.084,0.058l0.084,0.056l0.085,0.057l0.085,0.055l0.086,0.055l0.086,0.055l0.087,0.054l0.087,0.053l0.088,0.053l0.089,0.052l0.089,0.052l0.09,0.051l0.09,0.051l0.09,0.049l0.092,0.05l0.091,0.049l0.093,0.048l0.093,0.048l0.093,0.047l0.188,0.092l0.191,0.09l0.192,0.088l0.195,0.086l0.197,0.083l0.199,0.081l0.201,0.079l0.204,0.077l0.205,0.074l0.208,0.072l0.21,0.069l0.212,0.068l0.214,0.065l0.217,0.063l0.218,0.06l0.221,0.058l0.222,0.056l0.225,0.054l0.227,0.051l0.23,0.049l0.231,0.047l0.234,0.045l0.235,0.042l0.238,0.04l0.24,0.038l0.242,0.035l0.245,0.033l0.246,0.031l0.249,0.029l0.251,0.026l0.252,0.024l0.256,0.022l0.257,0.019l0.259,0.017l0.262,0.015l0.263,0.012l0.266,0.011l0.268,0.008l0.27,0.005l0.273,0.004l0.274,0.001l28.367,0l-0.154,-54.127l-23.613,0l0,12.267l8.893,0l0,28.52l-9.813,0l-0.103,0l-0.101,-0.002l-0.101,-0.002l-0.101,-0.002l-0.099,-0.004l-0.099,-0.004l-0.097,-0.005l-0.097,-0.006l-0.097,-0.007l-0.095,-0.007l-0.094,-0.009l-0.094,-0.009l-0.093,-0.009l-0.092,-0.011l-0.092,-0.011l-0.09,-0.013l-0.09,-0.013l-0.089,-0.013l-0.088,-0.015l-0.087,-0.015l-0.087,-0.016l-0.086,-0.017l-0.085,-0.018l-0.084,-0.018l-0.083,-0.02l-0.082,-0.02l-0.082,-0.021l-0.081,-0.021l-0.08,-0.023l-0.079,-0.023l-0.079,-0.024l-0.078,-0.024l-0.076,-0.026l-0.076,-0.026l-0.076,-0.028l-0.074,-0.027l-0.074,-0.029l-0.073,-0.03l-0.072,-0.03l-0.071,-0.031l-0.07,-0.032l-0.07,-0.032l-0.069,-0.034l-0.068,-0.034l-0.067,-0.035l-0.066,-0.036l-0.066,-0.036l-0.065,-0.038l-0.064,-0.038l-0.063,-0.039l-0.062,-0.039l-0.062,-0.041l-0.061,-0.041l-0.06,-0.042l-0.059,-0.043l-0.058,-0.044l-0.058,-0.044l-0.056,-0.045l-0.056,-0.046l-0.055,-0.047l-0.055,-0.048l-0.053,-0.048l-0.053,-0.049l-0.052,-0.05l-0.051,-0.051l-0.05,-0.051l-0.05,-0.052l-0.049,-0.054l-0.047,-0.053l-0.048,-0.055l-0.046,-0.055l-0.045,-0.057l-0.045,-0.057l-0.044,-0.057l-0.043,-0.059l-0.042,-0.059l-0.042,-0.06l-0.04,-0.061l-0.04,-0.062l-0.039,-0.063l-0.038,-0.063l-0.038,-0.064l-0.036,-0.065l-0.036,-0.065l-0.035,-0.067l-0.034,-0.067l-0.034,-0.068l-0.032,-0.069l-0.032,-0.069l-0.031,-0.071l-0.03,-0.071l-0.03,-0.072l-0.028,-0.073l-0.028,-0.073l-0.027,-0.074l-0.026,-0.075l-0.026,-0.076l-0.024,-0.077l-0.024,-0.077l-0.023,-0.079l-0.022,-0.079l-0.021,-0.079l-0.021,-0.081l-0.019,-0.081l-0.019,-0.083l-0.019,-0.082l-0.017,-0.084l-0.016,-0.085l-0.016,-0.085l-0.015,-0.086l-0.014,-0.087l-0.013,-0.088l-0.013,-0.088l-0.011,-0.089l-0.011,-0.09l-0.01,-0.091l-0.01,-0.092l-0.008,-0.092l-0.008,-0.093l-0.007,-0.094l-0.006,-0.095l-0.005,-0.095l-0.004,-0.097l-0.004,-0.097l-0.003,-0.098l-0.002,-0.098l-0.001,-0.1l0,-0.1l0,-70.533l0.001,-0.2l0.004,-0.197l0.008,-0.193l0.004,-0.095l0.005,-0.095l0.007,-0.094l0.006,-0.093l0.008,-0.093l0.008,-0.091l0.009,-0.091l0.009,-0.09l0.011,-0.089l0.011,-0.089l0.011,-0.087l0.013,-0.087l0.013,-0.086l0.014,-0.086l0.015,-0.084l0.015,-0.084l0.016,-0.083l0.017,-0.082l0.017,-0.081l0.018,-0.081l0.019,-0.08l0.02,-0.079l0.02,-0.078l0.021,-0.077l0.021,-0.077l0.023,-0.076l0.023,-0.075l0.024,-0.074l0.024,-0.074l0.026,-0.072l0.026,-0.072l0.026,-0.071l0.028,-0.071l0.028,-0.069l0.029,-0.069l0.029,-0.068l0.03,-0.067l0.031,-0.067l0.032,-0.065l0.032,-0.065l0.033,-0.064l0.034,-0.064l0.035,-0.062l0.035,-0.062l0.036,-0.061l0.036,-0.06l0.038,-0.059l0.038,-0.059l0.038,-0.058l0.04,-0.057l0.04,-0.056l0.041,-0.055l0.042,-0.055l0.042,-0.054l0.043,-0.053l0.044,-0.052l0.044,-0.052l0.045,-0.05l0.046,-0.05l0.047,-0.049l0.047,-0.049l0.048,-0.047l0.049,-0.047l0.049,-0.046l0.05,-0.045l0.051,-0.045l0.052,-0.043l0.052,-0.043l0.053,-0.042l0.054,-0.041l0.054,-0.041l0.055,-0.04l0.056,-0.039l0.057,-0.038l0.057,-0.037l0.058,-0.037l0.059,-0.035l0.059,-0.035l0.06,-0.035l0.061,-0.033l0.061,-0.033l0.063,-0.031l0.063,-0.031l0.063,-0.031l0.065,-0.029l0.065,-0.029l0.066,-0.028l0.066,-0.027l0.067,-0.026l0.068,-0.026l0.069,-0.025l0.069,-0.024l0.07,-0.023l0.071,-0.022l0.072,-0.022l0.072,-0.021l0.073,-0.02l0.073,-0.019l0.075,-0.018l0.075,-0.018l0.075,-0.017l0.077,-0.016l0.077,-0.015l0.078,-0.015l0.078,-0.014l0.08,-0.013l0.08,-0.012l0.08,-0.011l0.082,-0.011l0.082,-0.01l0.083,-0.009l0.084,-0.008l0.084,-0.007l0.085,-0.007l0.086,-0.006l0.086,-0.005l0.087,-0.005l0.088,-0.003l0.088,-0.003l0.09,-0.002l0.09,-0.001l0.09,0l2.914,0l0.102,0l0.102,0.001l0.101,0.002l0.1,0.003l0.1,0.003l0.098,0.005l0.098,0.005l0.097,0.006l0.096,0.007l0.096,0.007l0.094,0.008l0.094,0.009l0.093,0.01l0.092,0.011l0.091,0.011l0.091,0.012l0.09,0.013l0.089,0.014l0.088,0.015l0.087,0.015l0.087,0.016l0.085,0.017l0.085,0.018l0.084,0.018l0.084,0.019l0.082,0.02l0.082,0.021l0.081,0.022l0.08,0.022l0.079,0.023l0.079,0.024l0.077,0.025l0.077,0.026l0.076,0.026l0.075,0.027l0.075,0.028l0.074,0.029l0.072,0.029l0.072,0.031l0.072,0.031l0.07,0.031l0.07,0.033l0.069,0.033l0.068,0.035l0.067,0.035l0.066,0.035l0.066,0.037l0.065,0.037l0.064,0.038l0.063,0.039l0.062,0.04l0.062,0.041l0.06,0.041l0.06,0.042l0.06,0.043l0.058,0.043l0.057,0.045l0.057,0.045l0.056,0.046l0.055,0.047l0.055,0.047l0.053,0.049l0.053,0.049l0.052,0.05l0.051,0.05l0.05,0.052l0.05,0.052l0.048,0.053l0.048,0.054l0.047,0.055l0.047,0.055l0.045,0.056l0.045,0.057l0.044,0.058l0.043,0.059l0.042,0.059l0.041,0.06l0.041,0.061l0.04,0.062l0.039,0.062l0.038,0.064l0.038,0.064l0.036,0.065l0.036,0.065l0.035,0.067l0.034,0.067l0.034,0.068l0.032,0.069l0.032,0.069l0.031,0.071l0.03,0.071l0.029,0.072l0.029,0.072l0.028,0.074l0.027,0.074l0.026,0.075l0.025,0.076l0.025,0.077l0.024,0.077l0.023,0.078l0.022,0.079l0.021,0.08l0.021,0.081l0.019,0.081l0.019,0.082l0.018,0.083l0.018,0.084l0.016,0.084l0.016,0.086l0.015,0.086l0.014,0.087l0.013,0.087l0.012,0.089l0.012,0.089l0.011,0.09l0.01,0.091l0.009,0.091l0.009,0.093l0.007,0.093l0.007,0.094l0.006,0.095l0.006,0.095l0.004,0.096l0.004,0.097l0.002,0.098l0.002,0.099l0.002,0.099l0,0.101l0,14.413l14.72,0l0,-15.487l-0.001,-0.291l-0.003,-0.289l-0.006,-0.286l-0.007,-0.285l-0.01,-0.282l-0.012,-0.279l-0.014,-0.278l-0.016,-0.275l-0.018,-0.273l-0.021,-0.27l-0.022,-0.269l-0.025,-0.266l-0.027,-0.264l-0.029,-0.261l-0.031,-0.259l-0.033,-0.257l-0.036,-0.255l-0.038,-0.252l-0.039,-0.25l-0.042,-0.248l-0.045,-0.245l-0.046,-0.243l-0.048,-0.241l-0.051,-0.239l-0.053,-0.236l-0.055,-0.234l-0.057,-0.232l-0.059,-0.23l-0.061,-0.227l-0.064,-0.225l-0.065,-0.222l-0.068,-0.221l-0.07,-0.218l-0.072,-0.216l-0.074,-0.213l-0.077,-0.211l-0.078,-0.209l-0.081,-0.207l-0.083,-0.204l-0.085,-0.203l-0.087,-0.199l-0.089,-0.198l-0.092,-0.195l-0.094,-0.193l-0.095,-0.191l-0.098,-0.188l-0.1,-0.186l-0.103,-0.184l-0.052,-0.091l-0.052,-0.091l-0.053,-0.089l-0.054,-0.09l-0.054,-0.089l-0.054,-0.088l-0.055,-0.087l-0.056,-0.088l-0.056,-0.086l-0.057,-0.086l-0.057,-0.085l-0.058,-0.085l-0.059,-0.084l-0.059,-0.084l-0.059,-0.083l-0.06,-0.082l-0.061,-0.082l-0.061,-0.082l-0.061,-0.08l-0.062,-0.081l-0.063,-0.079l-0.063,-0.079l-0.064,-0.079l-0.064,-0.078l-0.065,-0.077l-0.066,-0.077l-0.066,-0.076l-0.066,-0.076l-0.067,-0.075l-0.068,-0.074l-0.068,-0.074l-0.068,-0.074l-0.069,-0.072l-0.07,-0.073l-0.07,-0.071l-0.071,-0.071l-0.071,-0.071l-0.072,-0.07l-0.073,-0.069l-0.073,-0.069l-0.073,-0.068l-0.074,-0.068l-0.075,-0.067l-0.075,-0.066l-0.075,-0.066l-0.076,-0.066l-0.077,-0.065l-0.077,-0.064l-0.078,-0.063l-0.078,-0.063l-0.079,-0.063l-0.08,-0.062l-0.079,-0.061l-0.081,-0.061l-0.081,-0.06l-0.081,-0.06l-0.082,-0.059l-0.083,-0.059l-0.083,-0.058l-0.084,-0.057l-0.084,-0.057l-0.085,-0.056l-0.085,-0.056l-0.086,-0.055l-0.086,-0.054l-0.087,-0.054l-0.088,-0.054l-0.088,-0.052l-0.088,-0.053l-0.089,-0.051l-0.09,-0.051l-0.09,-0.051l-0.091,-0.05l-0.091,-0.049l-0.092,-0.049l-0.092,-0.048l-0.093,-0.048l-0.093,-0.047l-0.188,-0.093l-0.191,-0.09l-0.193,-0.088l-0.194,-0.085l-0.197,-0.084l-0.199,-0.081l-0.202,-0.078l-0.203,-0.077l-0.206,-0.074l-0.207,-0.072l-0.21,-0.07l-0.212,-0.067l-0.214,-0.065l-0.217,-0.063l-0.218,-0.061l-0.221,-0.058l-0.223,-0.056l-0.225,-0.053l-0.227,-0.052l-0.229,-0.049l-0.231,-0.047l-0.234,-0.044l-0.236,-0.042l-0.237,-0.04l-0.24,-0.038l-0.243,-0.035l-0.244,-0.034l-0.246,-0.03l-0.249,-0.029l-0.251,-0.026l-0.253,-0.024l-0.255,-0.022l-0.257,-0.019l-0.259,-0.017l-0.262,-0.015l-0.264,-0.013l-0.265,-0.01l-0.268,-0.008l-0.271,-0.006l-0.272,-0.003l-0.274,-0.001l-9.507,0Z" style="fill:#fc3;"/><path d="M357.504,46.907l0,116.093l-20.721,0l-0.062,-0.064l0.918,-43.152l-4.931,23.283l-16.209,0l-4.93,-23.283l0.918,43.152l-0.063,0.064l-20.72,0l0,-116.093l21.686,0l11.214,53.169l11.213,-53.169l21.687,0Zm-62.8,3l0,110.093l14.72,0l-1.534,-72.067l11.04,52.134l11.347,0l11.04,-52.134l-1.533,72.067l14.72,0l0,-110.093l-16.254,0l-13.646,64.706l-13.647,-64.706l-16.253,0Z" style="fill:#fc3;"/><path d="M396.51,46.908l0.298,0.004l0.296,0.006l0.295,0.009l0.292,0.011l0.291,0.014l0.29,0.017l0.287,0.019l0.286,0.022l0.284,0.024l0.282,0.027l0.281,0.03l0.278,0.032l0.277,0.035l0.276,0.037l0.273,0.041l0.272,0.043l0.27,0.046l0.269,0.048l0.266,0.051l0.265,0.054l0.263,0.057l0.261,0.06l0.26,0.062l0.258,0.065l0.256,0.068l0.254,0.071l0.252,0.074l0.25,0.077l0.249,0.08l0.247,0.082l0.244,0.086l0.243,0.088l0.241,0.091l0.239,0.095l0.238,0.097l0.235,0.1l0.233,0.104l0.226,0.104l0.12,0.056l0.114,0.055l0.114,0.056l0.113,0.057l0.112,0.057l0.113,0.058l0.111,0.059l0.112,0.06l0.11,0.06l0.11,0.061l0.109,0.062l0.109,0.062l0.109,0.064l0.108,0.064l0.107,0.065l0.106,0.066l0.106,0.066l0.106,0.067l0.105,0.068l0.104,0.068l0.104,0.07l0.103,0.07l0.103,0.071l0.102,0.072l0.101,0.072l0.101,0.073l0.1,0.074l0.1,0.075l0.099,0.075l0.098,0.077l0.098,0.076l0.097,0.078l0.096,0.078l0.096,0.079l0.095,0.08l0.095,0.081l0.093,0.081l0.094,0.082l0.093,0.083l0.091,0.083l0.091,0.084l0.091,0.085l0.09,0.086l0.089,0.086l0.089,0.086l0.088,0.088l0.087,0.089l0.087,0.088l0.085,0.09l0.086,0.091l0.084,0.091l0.084,0.092l0.083,0.092l0.082,0.093l0.082,0.094l0.081,0.095l0.081,0.095l0.079,0.095l0.079,0.097l0.079,0.097l0.077,0.098l0.077,0.098l0.076,0.099l0.075,0.1l0.075,0.1l0.074,0.101l0.073,0.101l0.073,0.102l0.071,0.103l0.071,0.103l0.071,0.105l0.07,0.104l0.068,0.105l0.069,0.106l0.067,0.106l0.067,0.107l0.066,0.108l0.065,0.108l0.065,0.108l0.064,0.11l0.063,0.109l0.065,0.116l0.12,0.218l0.12,0.224l0.117,0.227l0.114,0.23l0.112,0.231l0.108,0.233l0.106,0.236l0.103,0.238l0.1,0.239l0.097,0.242l0.095,0.244l0.091,0.246l0.089,0.248l0.087,0.25l0.083,0.252l0.081,0.254l0.078,0.256l0.075,0.258l0.073,0.259l0.07,0.262l0.068,0.264l0.064,0.266l0.063,0.267l0.059,0.269l0.057,0.272l0.055,0.273l0.052,0.275l0.049,0.278l0.047,0.279l0.045,0.28l0.041,0.283l0.04,0.285l0.037,0.287l0.034,0.289l0.032,0.29l0.03,0.292l0.027,0.295l0.025,0.296l0.022,0.298l0.02,0.3l0.018,0.302l0.015,0.304l0.013,0.306l0.01,0.308l0.008,0.309l0.006,0.312l0.004,0.314l0.001,0.31l0,94.239l-20.72,0l0,-40.327l-10.867,0l0,40.327l-20.72,0l0,-94.239l0.001,-0.31l0.004,-0.314l0.005,-0.311l0.009,-0.31l0.01,-0.308l0.013,-0.306l0.015,-0.304l0.018,-0.302l0.02,-0.3l0.022,-0.298l0.025,-0.296l0.027,-0.295l0.03,-0.292l0.032,-0.291l0.034,-0.288l0.037,-0.287l0.039,-0.285l0.042,-0.283l0.045,-0.28l0.046,-0.279l0.05,-0.278l0.052,-0.275l0.054,-0.273l0.057,-0.272l0.06,-0.269l0.062,-0.268l0.065,-0.265l0.068,-0.264l0.07,-0.262l0.072,-0.259l0.076,-0.258l0.078,-0.256l0.081,-0.254l0.083,-0.252l0.087,-0.25l0.088,-0.248l0.092,-0.246l0.095,-0.244l0.097,-0.242l0.1,-0.24l0.103,-0.237l0.105,-0.236l0.109,-0.233l0.111,-0.232l0.115,-0.229l0.117,-0.227l0.12,-0.224l0.12,-0.218l0.065,-0.115l0.063,-0.11l0.064,-0.109l0.065,-0.109l0.065,-0.108l0.066,-0.108l0.067,-0.107l0.067,-0.106l0.068,-0.106l0.069,-0.105l0.07,-0.104l0.07,-0.104l0.071,-0.104l0.072,-0.103l0.073,-0.102l0.073,-0.101l0.074,-0.101l0.074,-0.1l0.076,-0.1l0.076,-0.099l0.077,-0.098l0.077,-0.098l0.078,-0.097l0.079,-0.097l0.08,-0.095l0.08,-0.096l0.081,-0.094l0.082,-0.094l0.082,-0.093l0.084,-0.092l0.084,-0.092l0.084,-0.091l0.085,-0.091l0.086,-0.089l0.087,-0.089l0.087,-0.089l0.088,-0.087l0.088,-0.087l0.09,-0.087l0.09,-0.085l0.09,-0.085l0.092,-0.084l0.091,-0.084l0.093,-0.082l0.093,-0.082l0.094,-0.081l0.095,-0.081l0.095,-0.08l0.095,-0.079l0.097,-0.078l0.097,-0.078l0.098,-0.077l0.098,-0.076l0.099,-0.075l0.099,-0.075l0.101,-0.074l0.101,-0.073l0.101,-0.072l0.102,-0.072l0.103,-0.071l0.103,-0.07l0.103,-0.069l0.105,-0.069l0.105,-0.068l0.105,-0.067l0.106,-0.066l0.107,-0.066l0.107,-0.065l0.108,-0.064l0.108,-0.064l0.109,-0.062l0.11,-0.062l0.11,-0.061l0.11,-0.06l0.111,-0.06l0.112,-0.059l0.112,-0.058l0.113,-0.057l0.113,-0.057l0.114,-0.056l0.114,-0.055l0.12,-0.056l0.226,-0.104l0.233,-0.104l0.235,-0.1l0.237,-0.097l0.239,-0.095l0.241,-0.091l0.243,-0.088l0.245,-0.086l0.247,-0.082l0.248,-0.08l0.251,-0.077l0.252,-0.074l0.254,-0.071l0.256,-0.068l0.258,-0.065l0.259,-0.062l0.262,-0.06l0.263,-0.057l0.264,-0.054l0.267,-0.051l0.268,-0.048l0.271,-0.046l0.271,-0.043l0.274,-0.041l0.275,-0.037l0.277,-0.035l0.279,-0.032l0.281,-0.03l0.282,-0.027l0.284,-0.024l0.286,-0.022l0.287,-0.019l0.289,-0.017l0.291,-0.014l0.293,-0.011l0.294,-0.009l0.297,-0.006l0.298,-0.004l0.293,-0.001l11.053,0l0.293,0.001Zm-11.34,2.999l-0.274,0.001l-0.272,0.003l-0.271,0.006l-0.267,0.008l-0.266,0.01l-0.264,0.013l-0.262,0.015l-0.259,0.017l-0.257,0.02l-0.255,0.022l-0.253,0.024l-0.251,0.026l-0.249,0.029l-0.246,0.031l-0.244,0.034l-0.242,0.035l-0.24,0.038l-0.238,0.041l-0.236,0.042l-0.234,0.045l-0.231,0.047l-0.229,0.05l-0.227,0.052l-0.225,0.054l-0.223,0.056l-0.221,0.059l-0.218,0.061l-0.216,0.063l-0.215,0.066l-0.212,0.068l-0.209,0.07l-0.208,0.072l-0.206,0.075l-0.203,0.077l-0.201,0.08l-0.2,0.082l-0.197,0.084l-0.194,0.086l-0.193,0.089l-0.095,0.045l-0.095,0.045l-0.095,0.047l-0.094,0.047l-0.093,0.047l-0.093,0.048l-0.092,0.049l-0.092,0.049l-0.091,0.05l-0.091,0.05l-0.09,0.051l-0.09,0.052l-0.089,0.052l-0.088,0.052l-0.088,0.054l-0.088,0.053l-0.087,0.055l-0.086,0.055l-0.086,0.055l-0.085,0.057l-0.085,0.056l-0.084,0.057l-0.084,0.058l-0.083,0.059l-0.082,0.059l-0.083,0.059l-0.081,0.06l-0.081,0.061l-0.08,0.061l-0.08,0.062l-0.08,0.063l-0.079,0.063l-0.078,0.063l-0.078,0.065l-0.077,0.064l-0.077,0.066l-0.076,0.066l-0.075,0.066l-0.075,0.067l-0.075,0.068l-0.074,0.068l-0.073,0.069l-0.073,0.069l-0.073,0.07l-0.071,0.071l-0.072,0.071l-0.071,0.071l-0.07,0.072l-0.069,0.073l-0.07,0.074l-0.068,0.074l-0.068,0.074l-0.068,0.075l-0.067,0.076l-0.066,0.076l-0.066,0.077l-0.066,0.077l-0.064,0.078l-0.065,0.079l-0.064,0.079l-0.063,0.08l-0.062,0.08l-0.063,0.081l-0.061,0.081l-0.061,0.082l-0.061,0.083l-0.06,0.083l-0.059,0.084l-0.059,0.084l-0.059,0.085l-0.057,0.086l-0.058,0.086l-0.057,0.086l-0.056,0.088l-0.055,0.087l-0.056,0.089l-0.054,0.089l-0.054,0.089l-0.054,0.09l-0.053,0.091l-0.052,0.091l-0.052,0.092l-0.103,0.185l-0.1,0.188l-0.098,0.19l-0.095,0.192l-0.094,0.195l-0.091,0.196l-0.09,0.2l-0.087,0.201l-0.085,0.204l-0.083,0.206l-0.081,0.208l-0.078,0.211l-0.077,0.213l-0.074,0.215l-0.072,0.218l-0.07,0.219l-0.068,0.223l-0.065,0.224l-0.064,0.227l-0.061,0.229l-0.059,0.231l-0.057,0.234l-0.055,0.236l-0.053,0.238l-0.051,0.241l-0.048,0.243l-0.046,0.245l-0.044,0.247l-0.042,0.25l-0.04,0.252l-0.038,0.255l-0.035,0.256l-0.034,0.259l-0.031,0.262l-0.029,0.263l-0.027,0.266l-0.025,0.268l-0.022,0.271l-0.021,0.273l-0.018,0.275l-0.016,0.277l-0.014,0.28l-0.012,0.282l-0.01,0.284l-0.007,0.287l-0.006,0.289l-0.003,0.291l-0.001,0.294l0,91.233l14.72,0l0,-40.327l16.867,0l0,40.327l14.72,0l0,-91.233l-0.001,-0.294l-0.004,-0.291l-0.005,-0.289l-0.008,-0.287l-0.009,-0.284l-0.012,-0.282l-0.014,-0.28l-0.016,-0.277l-0.018,-0.275l-0.021,-0.273l-0.023,-0.271l-0.024,-0.268l-0.027,-0.266l-0.029,-0.263l-0.031,-0.262l-0.034,-0.259l-0.035,-0.256l-0.038,-0.255l-0.04,-0.252l-0.042,-0.25l-0.044,-0.247l-0.046,-0.245l-0.049,-0.243l-0.05,-0.241l-0.053,-0.238l-0.055,-0.236l-0.057,-0.234l-0.059,-0.231l-0.061,-0.229l-0.064,-0.227l-0.066,-0.224l-0.067,-0.223l-0.07,-0.219l-0.072,-0.218l-0.075,-0.215l-0.076,-0.213l-0.079,-0.211l-0.08,-0.208l-0.083,-0.206l-0.085,-0.204l-0.087,-0.201l-0.09,-0.2l-0.091,-0.196l-0.094,-0.195l-0.096,-0.192l-0.098,-0.19l-0.1,-0.188l-0.102,-0.185l-0.052,-0.092l-0.052,-0.091l-0.053,-0.091l-0.054,-0.09l-0.054,-0.089l-0.055,-0.089l-0.055,-0.089l-0.055,-0.087l-0.057,-0.088l-0.056,-0.086l-0.058,-0.086l-0.058,-0.086l-0.058,-0.085l-0.059,-0.084l-0.059,-0.084l-0.06,-0.083l-0.061,-0.083l-0.061,-0.082l-0.062,-0.081l-0.062,-0.081l-0.063,-0.08l-0.063,-0.08l-0.063,-0.079l-0.065,-0.079l-0.065,-0.078l-0.065,-0.077l-0.066,-0.077l-0.066,-0.076l-0.067,-0.076l-0.068,-0.075l-0.068,-0.074l-0.069,-0.074l-0.069,-0.074l-0.069,-0.073l-0.071,-0.072l-0.07,-0.071l-0.072,-0.071l-0.072,-0.071l-0.072,-0.07l-0.073,-0.069l-0.073,-0.069l-0.074,-0.068l-0.075,-0.068l-0.075,-0.067l-0.076,-0.066l-0.076,-0.066l-0.076,-0.066l-0.078,-0.064l-0.077,-0.065l-0.079,-0.063l-0.078,-0.063l-0.08,-0.063l-0.08,-0.062l-0.08,-0.061l-0.081,-0.061l-0.082,-0.06l-0.082,-0.059l-0.082,-0.059l-0.084,-0.059l-0.083,-0.058l-0.084,-0.057l-0.085,-0.056l-0.085,-0.057l-0.086,-0.055l-0.087,-0.055l-0.087,-0.055l-0.087,-0.053l-0.088,-0.054l-0.089,-0.052l-0.089,-0.052l-0.089,-0.052l-0.09,-0.051l-0.091,-0.05l-0.091,-0.05l-0.092,-0.049l-0.092,-0.049l-0.093,-0.048l-0.093,-0.047l-0.094,-0.047l-0.095,-0.047l-0.095,-0.045l-0.095,-0.045l-0.193,-0.089l-0.195,-0.086l-0.197,-0.084l-0.199,-0.082l-0.201,-0.08l-0.203,-0.077l-0.206,-0.075l-0.208,-0.072l-0.21,-0.07l-0.212,-0.068l-0.214,-0.066l-0.216,-0.063l-0.219,-0.061l-0.22,-0.059l-0.223,-0.056l-0.225,-0.054l-0.227,-0.052l-0.229,-0.05l-0.232,-0.047l-0.233,-0.045l-0.236,-0.042l-0.238,-0.041l-0.24,-0.038l-0.242,-0.035l-0.244,-0.034l-0.247,-0.031l-0.248,-0.029l-0.251,-0.026l-0.253,-0.024l-0.255,-0.022l-0.257,-0.02l-0.26,-0.017l-0.261,-0.015l-0.264,-0.013l-0.266,-0.01l-0.268,-0.008l-0.27,-0.006l-0.272,-0.003l-0.275,-0.001l-11.04,0Zm7.614,13.34l0.099,0.001l0.099,0.002l0.098,0.003l0.097,0.003l0.096,0.005l0.096,0.005l0.095,0.006l0.093,0.007l0.094,0.007l0.092,0.008l0.092,0.009l0.09,0.01l0.09,0.011l0.09,0.011l0.088,0.012l0.088,0.013l0.087,0.014l0.086,0.015l0.085,0.015l0.084,0.016l0.084,0.017l0.083,0.018l0.082,0.018l0.082,0.019l0.08,0.02l0.08,0.021l0.079,0.022l0.078,0.022l0.078,0.023l0.076,0.024l0.076,0.025l0.075,0.026l0.075,0.026l0.073,0.027l0.073,0.028l0.072,0.029l0.071,0.029l0.07,0.031l0.07,0.031l0.069,0.031l0.068,0.033l0.067,0.033l0.066,0.035l0.066,0.035l0.065,0.035l0.064,0.037l0.063,0.037l0.063,0.038l0.061,0.039l0.061,0.04l0.06,0.041l0.06,0.041l0.058,0.042l0.058,0.043l0.057,0.043l0.056,0.045l0.056,0.045l0.054,0.046l0.054,0.047l0.053,0.047l0.053,0.049l0.051,0.049l0.051,0.05l0.05,0.05l0.049,0.052l0.048,0.052l0.048,0.053l0.046,0.054l0.046,0.055l0.046,0.055l0.044,0.056l0.044,0.057l0.043,0.058l0.042,0.059l0.041,0.059l0.04,0.06l0.04,0.061l0.039,0.062l0.038,0.062l0.037,0.064l0.037,0.064l0.036,0.065l0.035,0.065l0.034,0.067l0.033,0.067l0.033,0.068l0.032,0.069l0.031,0.069l0.03,0.071l0.03,0.071l0.028,0.072l0.028,0.072l0.027,0.074l0.027,0.074l0.025,0.075l0.025,0.076l0.024,0.077l0.023,0.077l0.023,0.078l0.021,0.079l0.021,0.08l0.02,0.081l0.019,0.081l0.019,0.082l0.017,0.083l0.017,0.084l0.016,0.084l0.016,0.086l0.014,0.086l0.014,0.087l0.013,0.087l0.012,0.089l0.012,0.089l0.01,0.09l0.01,0.091l0.009,0.091l0.008,0.093l0.008,0.093l0.007,0.094l0.005,0.095l0.006,0.095l0.004,0.096l0.003,0.097l0.003,0.098l0.002,0.099l0.001,0.099l0.001,0.101l0,36.646l-16.867,0l0,-36.646l0,-0.101l0.002,-0.099l0.002,-0.099l0.002,-0.098l0.004,-0.097l0.004,-0.096l0.005,-0.095l0.006,-0.095l0.007,-0.094l0.007,-0.093l0.009,-0.093l0.009,-0.091l0.009,-0.091l0.011,-0.09l0.011,-0.089l0.013,-0.089l0.013,-0.087l0.013,-0.087l0.015,-0.086l0.015,-0.086l0.016,-0.084l0.017,-0.084l0.018,-0.083l0.018,-0.082l0.02,-0.081l0.02,-0.081l0.021,-0.08l0.021,-0.079l0.023,-0.078l0.023,-0.077l0.024,-0.077l0.025,-0.076l0.025,-0.075l0.026,-0.074l0.028,-0.074l0.027,-0.072l0.029,-0.072l0.03,-0.071l0.03,-0.071l0.031,-0.069l0.032,-0.069l0.032,-0.068l0.034,-0.067l0.034,-0.067l0.035,-0.065l0.036,-0.065l0.036,-0.064l0.038,-0.064l0.038,-0.062l0.039,-0.062l0.039,-0.061l0.041,-0.06l0.041,-0.059l0.042,-0.059l0.043,-0.058l0.044,-0.057l0.044,-0.056l0.045,-0.055l0.046,-0.055l0.047,-0.054l0.048,-0.053l0.048,-0.052l0.049,-0.052l0.05,-0.05l0.051,-0.05l0.051,-0.049l0.053,-0.049l0.053,-0.047l0.053,-0.047l0.055,-0.046l0.055,-0.045l0.057,-0.045l0.057,-0.043l0.057,-0.043l0.059,-0.042l0.059,-0.041l0.061,-0.041l0.06,-0.04l0.062,-0.039l0.063,-0.038l0.063,-0.037l0.064,-0.037l0.065,-0.035l0.066,-0.035l0.066,-0.035l0.067,-0.033l0.068,-0.033l0.069,-0.031l0.07,-0.031l0.07,-0.031l0.071,-0.029l0.072,-0.029l0.073,-0.028l0.073,-0.027l0.074,-0.026l0.076,-0.026l0.075,-0.025l0.077,-0.024l0.077,-0.023l0.079,-0.022l0.079,-0.022l0.08,-0.021l0.08,-0.02l0.081,-0.019l0.083,-0.018l0.083,-0.018l0.083,-0.017l0.085,-0.016l0.085,-0.015l0.086,-0.015l0.087,-0.014l0.088,-0.013l0.088,-0.012l0.089,-0.011l0.09,-0.011l0.091,-0.01l0.092,-0.009l0.092,-0.008l0.093,-0.007l0.094,-0.007l0.095,-0.006l0.095,-0.005l0.097,-0.005l0.097,-0.003l0.098,-0.003l0.098,-0.002l0.1,-0.001l0.1,0l3.987,0l0.1,0Zm-4.081,3l-0.083,0l-0.075,0.001l-0.074,0.001l-0.073,0.002l-0.072,0.003l-0.071,0.003l-0.07,0.004l-0.068,0.004l-0.067,0.005l-0.066,0.005l-0.065,0.006l-0.064,0.006l-0.063,0.007l-0.061,0.007l-0.06,0.008l-0.059,0.008l-0.058,0.009l-0.056,0.009l-0.056,0.009l-0.054,0.01l-0.053,0.01l-0.052,0.01l-0.05,0.011l-0.05,0.011l-0.048,0.012l-0.047,0.011l-0.046,0.012l-0.045,0.013l-0.044,0.012l-0.043,0.013l-0.041,0.013l-0.041,0.013l-0.039,0.014l-0.038,0.013l-0.038,0.014l-0.036,0.014l-0.035,0.014l-0.034,0.014l-0.033,0.014l-0.033,0.015l-0.031,0.014l-0.03,0.015l-0.03,0.014l-0.028,0.015l-0.028,0.015l-0.027,0.015l-0.026,0.015l-0.026,0.015l-0.025,0.015l-0.023,0.015l-0.024,0.015l-0.022,0.015l-0.023,0.016l-0.021,0.015l-0.021,0.016l-0.021,0.016l-0.019,0.015l-0.02,0.016l-0.019,0.016l-0.018,0.016l-0.019,0.017l-0.018,0.016l-0.017,0.017l-0.018,0.017l-0.017,0.017l-0.016,0.018l-0.017,0.018l-0.016,0.018l-0.017,0.019l-0.016,0.019l-0.015,0.019l-0.016,0.02l-0.016,0.021l-0.015,0.021l-0.016,0.021l-0.015,0.022l-0.015,0.023l-0.016,0.023l-0.015,0.024l-0.015,0.025l-0.015,0.025l-0.015,0.026l-0.015,0.027l-0.014,0.028l-0.015,0.029l-0.015,0.029l-0.014,0.031l-0.015,0.031l-0.014,0.032l-0.015,0.034l-0.014,0.034l-0.014,0.035l-0.014,0.036l-0.013,0.037l-0.014,0.039l-0.013,0.039l-0.014,0.04l-0.012,0.042l-0.013,0.042l-0.013,0.045l-0.012,0.044l-0.012,0.046l-0.012,0.047l-0.011,0.049l-0.011,0.049l-0.011,0.051l-0.011,0.052l-0.01,0.053l-0.01,0.054l-0.009,0.055l-0.009,0.057l-0.008,0.058l-0.009,0.059l-0.007,0.06l-0.008,0.061l-0.006,0.062l-0.007,0.064l-0.005,0.065l-0.006,0.066l-0.004,0.067l-0.005,0.069l-0.003,0.07l-0.004,0.07l-0.002,0.072l-0.002,0.074l-0.002,0.074l-0.001,0.075l0,0.082l0,33.641l10.867,0l0,-33.641l-0.001,-0.082l-0.001,-0.075l-0.001,-0.075l-0.002,-0.073l-0.003,-0.072l-0.003,-0.07l-0.004,-0.07l-0.004,-0.069l-0.005,-0.067l-0.005,-0.066l-0.006,-0.065l-0.006,-0.064l-0.007,-0.062l-0.007,-0.061l-0.008,-0.061l-0.008,-0.058l-0.008,-0.058l-0.009,-0.057l-0.01,-0.055l-0.009,-0.054l-0.011,-0.053l-0.01,-0.052l-0.011,-0.051l-0.011,-0.049l-0.011,-0.049l-0.012,-0.047l-0.012,-0.046l-0.012,-0.045l-0.013,-0.043l-0.013,-0.043l-0.013,-0.042l-0.013,-0.04l-0.013,-0.039l-0.014,-0.039l-0.013,-0.037l-0.015,-0.036l-0.014,-0.035l-0.014,-0.034l-0.014,-0.034l-0.014,-0.032l-0.015,-0.031l-0.014,-0.031l-0.015,-0.029l-0.015,-0.029l-0.015,-0.028l-0.015,-0.027l-0.014,-0.026l-0.015,-0.025l-0.015,-0.025l-0.016,-0.024l-0.015,-0.023l-0.015,-0.023l-0.016,-0.022l-0.015,-0.021l-0.015,-0.021l-0.016,-0.021l-0.016,-0.02l-0.016,-0.019l-0.016,-0.019l-0.016,-0.019l-0.016,-0.018l-0.017,-0.018l-0.017,-0.018l-0.017,-0.017l-0.017,-0.017l-0.018,-0.017l-0.018,-0.016l-0.018,-0.017l-0.018,-0.016l-0.02,-0.016l-0.019,-0.016l-0.02,-0.015l-0.02,-0.016l-0.021,-0.016l-0.022,-0.015l-0.022,-0.016l-0.023,-0.015l-0.023,-0.015l-0.024,-0.015l-0.024,-0.015l-0.026,-0.015l-0.026,-0.015l-0.027,-0.015l-0.028,-0.015l-0.029,-0.015l-0.029,-0.014l-0.03,-0.015l-0.032,-0.014l-0.032,-0.015l-0.033,-0.014l-0.034,-0.014l-0.036,-0.014l-0.036,-0.014l-0.037,-0.014l-0.038,-0.013l-0.04,-0.014l-0.04,-0.013l-0.041,-0.013l-0.043,-0.013l-0.044,-0.012l-0.045,-0.013l-0.046,-0.012l-0.047,-0.011l-0.048,-0.012l-0.05,-0.011l-0.05,-0.011l-0.052,-0.01l-0.053,-0.01l-0.055,-0.01l-0.055,-0.009l-0.057,-0.009l-0.057,-0.009l-0.059,-0.008l-0.06,-0.008l-0.062,-0.007l-0.062,-0.007l-0.064,-0.006l-0.065,-0.006l-0.066,-0.005l-0.067,-0.005l-0.068,-0.004l-0.07,-0.004l-0.071,-0.003l-0.072,-0.003l-0.073,-0.002l-0.074,-0.001l-0.076,-0.001l-0.082,0l-3.975,0Z" style="fill:#fc3;"/><path d="M475.11,163l-20.72,0l0,-24.465l-9.793,-31.092l0,55.557l-20.72,0l0,-116.093l19.959,0l10.554,35.557l0,-35.557l20.72,0l0,116.093Zm-48.233,-113.093l0,110.093l14.72,0l0,-72.067l15.793,50.14l0,21.927l14.72,0l0,-110.093l-14.72,0l0,53.206l-15.793,-53.206l-14.72,0Z" style="fill:#fc3;"/><path d="M88.777,160l0,-47.993l-16.867,0l0,47.993l-14.72,0l0,-110.093l14.72,0l0,49.833l16.867,0l0,-49.833l14.72,0l0,110.093l-14.72,0Z" style="fill:#fff;fill-rule:nonzero;"/><path d="M131.25,160l-14.72,0l0,-91.233c0,-12.574 5.878,-18.86 17.634,-18.86l11.04,0c11.755,0 17.633,6.286 17.633,18.86l0,91.233l-14.72,0l0,-40.327l-16.867,0l0,40.327Zm16.867,-53.667l0,-36.646c0,-4.294 -2.147,-6.44 -6.44,-6.44l-3.987,0c-4.293,0 -6.44,2.146 -6.44,6.44l0,36.646l16.867,0Z" style="fill:#fff;fill-rule:nonzero;"/><path d="M206.384,49.907l14.72,0l0,110.093l-14.72,0l0,-21.927l-15.794,-50.14l0,72.067l-14.72,0l0,-110.093l14.72,0l15.794,53.206l0,-53.206Z" style="fill:#fff;fill-rule:nonzero;"/><path d="M280.75,105.873l0.154,54.127l-28.367,0c-11.756,0 -17.633,-6.236 -17.633,-18.707l0,-72.68c0,-12.471 5.877,-18.706 17.633,-18.706l9.507,0c11.755,0 17.633,6.235 17.633,18.706l0,15.487l-14.72,0l0,-14.413c0,-4.294 -2.198,-6.44 -6.593,-6.44l-2.914,0c-3.884,0 -5.826,2.146 -5.826,6.44l0,70.533c0,4.293 2.197,6.44 6.593,6.44l9.813,0l0,-28.52l-8.893,0l0,-12.267l23.613,0Z" style="fill:#fff;fill-rule:nonzero;"/><path d="M324.604,114.613l13.646,-64.706l16.254,0l0,110.093l-14.72,0l1.533,-72.067l-11.04,52.134l-11.347,0l-11.04,-52.134l1.534,72.067l-14.72,0l0,-110.093l16.253,0l13.647,64.706Z" style="fill:#fff;fill-rule:nonzero;"/><path d="M382.257,160l-14.72,0l0,-91.233c0,-12.574 5.878,-18.86 17.633,-18.86l11.04,0c11.756,0 17.634,6.286 17.634,18.86l0,91.233l-14.72,0l0,-40.327l-16.867,0l0,40.327Zm16.867,-53.667l0,-36.646c0,-4.294 -2.147,-6.44 -6.44,-6.44l-3.987,0c-4.293,0 -6.44,2.146 -6.44,6.44l0,36.646l16.867,0Z" style="fill:#fff;fill-rule:nonzero;"/><path d="M457.39,49.907l14.72,0l0,110.093l-14.72,0l0,-21.927l-15.793,-50.14l0,72.067l-14.72,0l0,-110.093l14.72,0l15.793,53.206l0,-53.206Z" style="fill:#fff;fill-rule:nonzero;"/></g></g></svg>